<svg version="1.1" viewBox="0.0 0.0 499.7244094488189 499.4488188976378" fill="none" stroke="none" stroke-linecap="square" stroke-miterlimit="10" xmlns:xlink="http://www.w3.org/1999/xlink" xmlns="http://www.w3.org/2000/svg"><clipPath id="p.0"><path d="m0 0l499.7244 0l0 499.44882l-499.7244 0l0 -499.44882z" clip-rule="nonzero"/></clipPath><g clip-path="url(#p.0)"><path fill="#000000" fill-opacity="0.0" d="m0 0l499.7244 0l0 499.44882l-499.7244 0z" fill-rule="evenodd"/><path fill="#ffd966" d="m213.25984 249.72441c0 -102.568405 50.369736 -185.71654 112.50395 -185.71654c29.83789 0 58.453705 19.566505 79.55228 54.39511c21.098572 34.828613 32.95166 82.06633 32.95166 131.32143c0 102.568405 -50.36975 185.71654 -112.50394 185.71654c-62.134216 0 -112.50395 -83.14813 -112.50395 -185.71654z" fill-rule="evenodd"/><path fill="#a61c00" d="m0 0l71.08662 0l0 499.43307l-71.08662 0z" fill-rule="evenodd"/><path stroke="#a61c00" stroke-width="1.0" stroke-linejoin="round" stroke-linecap="butt" d="m0 0l71.08662 0l0 499.43307l-71.08662 0z" fill-rule="evenodd"/><path fill="#cc4125" d="m71.08662 0l71.08662 0l0 499.43307l-71.08662 0z" fill-rule="evenodd"/><path stroke="#a61c00" stroke-width="1.0" stroke-linejoin="round" stroke-linecap="butt" d="m71.08662 0l71.08662 0l0 499.43307l-71.08662 0z" fill-rule="evenodd"/><path fill="#a61c00" d="m142.17323 0.007874016l71.08661 0l0 499.43307l-71.08661 0z" fill-rule="evenodd"/><path stroke="#a61c00" stroke-width="1.0" stroke-linejoin="round" stroke-linecap="butt" d="m142.17323 0.007874016l71.08661 0l0 499.43307l-71.08661 0z" fill-rule="evenodd"/><path fill="#cc4125" d="m213.53018 0l71.08661 0l0 499.43307l-71.08661 0z" fill-rule="evenodd"/><path stroke="#a61c00" stroke-width="1.0" stroke-linejoin="round" stroke-linecap="butt" d="m213.53018 0l71.08661 0l0 499.43307l-71.08661 0z" fill-rule="evenodd"/><path fill="#a61c00" d="m284.34647 499.44357l0 -200.15747l215.37006 200.15747z" fill-rule="evenodd"/><path fill="#a61c00" d="m284.88715 3.8194003E-14l0 199.68504l215.37009 -199.68504z" fill-rule="evenodd"/></g></svg>