<svg version="1.1" viewBox="0.0 0.0 499.7244094488189 499.4488188976378" fill="none" stroke="none" stroke-linecap="square" stroke-miterlimit="10" xmlns:xlink="http://www.w3.org/1999/xlink" xmlns="http://www.w3.org/2000/svg"><clipPath id="p.0"><path d="m0 0l499.7244 0l0 499.44882l-499.7244 0l0 -499.44882z" clip-rule="nonzero"/></clipPath><g clip-path="url(#p.0)"><path fill="#000000" fill-opacity="0.0" d="m0 0l499.7244 0l0 499.44882l-499.7244 0z" fill-rule="evenodd"/><path fill="#06a77a" d="m0 0l499.71652 0l0 499.46457l-499.71652 0z" fill-rule="evenodd"/><path stroke="#06a77a" stroke-width="1.0" stroke-linejoin="round" stroke-linecap="butt" d="m0 0l499.71652 0l0 499.46457l-499.71652 0z" fill-rule="evenodd"/><path fill="#00ffff" d="m-38.30302 455.45535c3.9836845 -5.668976 -3.2171326 -23.44165 -2.7575417 -34.013947c0.4595909 -10.572266 8.119999 -23.443787 5.515087 -29.419739c-2.6049156 -5.975952 -15.782108 -10.266602 -21.144566 -6.435974c-5.3624573 3.8306274 -9.651398 17.77481 -11.030174 29.419739c-1.3787689 11.6449585 -2.145317 33.708282 2.7575455 40.44992c4.9028664 6.7416687 22.675964 5.6690063 26.659649 0z" fill-rule="evenodd"/><path fill="#00ffff" d="m-55.80079 394.05646c-4.9032936 -0.7661133 -9.499626 -7.047333 -16.547813 -10.111816c-7.0481873 -3.0645142 -18.846184 -5.670288 -25.741318 -8.2752075c-6.895134 -2.604889 -13.178047 -3.2171326 -15.629478 -7.3542786c-2.4514313 -4.1371765 -3.0632248 -8.734772 0.9208832 -17.468689c3.984108 -8.733917 14.556389 -26.3544 22.983772 -34.934845c8.427391 -8.580444 20.225815 -13.63678 27.580536 -16.54779c7.354725 -2.9110413 12.104534 -2.604065 16.54781 -0.91833496c4.4432755 1.68573 8.73307 5.05719 10.111839 11.032715c1.3787727 5.975525 -0.6134949 14.707733 -1.8392105 24.820435c-1.2257156 10.112701 -4.5959053 26.815247 -5.515087 35.855713c-0.9191818 9.040466 2.1453247 14.403351 0 18.387024c-2.145321 3.983673 -7.968643 6.2812195 -12.871933 5.5150757z" fill-rule="evenodd"/><path fill="#06a77a" d="m-97.31628 447.4685l90.803154 0l0 24.944885l-90.803154 0z" fill-rule="evenodd"/><path fill="#b4a7d6" d="m-408.0175 180.5258c-9.264465 -3.5630035 -3.562622 -17.244812 -2.5651855 -23.942947c0.9974365 -6.6981354 3.2762756 -13.253128 8.549805 -16.245895c5.273529 -2.9927673 16.249298 -2.8508148 23.09134 -1.7107239c6.842041 1.140091 13.970032 4.8458557 17.960968 8.551224c3.9909363 3.705368 4.9871826 8.55043 5.984619 13.681015c0.9974365 5.1305695 8.836945 13.824554 0 17.102432c-8.836914 3.277893 -43.75708 6.1279144 -53.021545 2.5648956z" fill-rule="evenodd"/><path fill="#06a77a" d="m-423.04 171.00092l82.11023 0l0 22.551178l-82.11023 0z" fill-rule="evenodd"/><path fill="#b4a7d6" d="m-431.9688 122.37514c1.710144 6.2706604 3.5630188 11.40123 11.117371 15.391724c7.5543213 3.9904938 19.527527 7.4107513 34.20865 8.551224c14.681152 1.1404877 41.905 3.7073517 53.878204 -1.7083435c11.973206 -5.415695 21.239227 -27.488167 17.960968 -30.785828c-3.2782288 -3.2976608 -21.951508 10.1642685 -37.630493 10.999855c-15.678955 0.83558655 -43.330353 -1.8728561 -56.44336 -5.9863358c-13.113007 -4.113472 -18.386139 -19.284142 -22.23468 -18.694527c-3.8485718 0.58961487 -2.5667725 15.961571 -0.85665894 22.232231z" fill-rule="evenodd"/><path fill="#d2506e" d="m-190.83495 129.9918c-6.196594 4.3876495 2.947998 56.19728 10.973511 62.17157c8.025528 5.974289 39.00853 -15.963928 37.17961 -26.325851c-1.8289185 -10.361923 -41.956512 -40.23336 -48.153122 -35.84572z" fill-rule="evenodd"/><path fill="#d2506e" d="m-170.59955 174.61021c3.6336365 9.03566 24.893158 32.007477 33.76805 51.29924c8.874886 19.291748 13.204285 53.270996 19.481255 64.451294c6.27697 11.180267 14.500832 5.69989 18.180573 2.6304016c3.6797485 -3.069519 1.5167694 -8.332428 3.8979034 -21.047455c2.381134 -12.715027 3.4622803 -39.020523 10.388901 -55.242767c6.9266205 -16.222244 27.038944 -32.83899 31.170834 -42.090714c4.1318855 -9.2517395 -1.3784447 -16.533112 -6.379513 -13.419693c-5.001068 3.1134186 -16.999641 21.205673 -23.626907 32.10019c-6.6272583 10.894516 -12.102486 18.2874 -16.13665 33.266937c-4.0341644 14.979523 -4.6108704 57.194305 -8.068329 56.61023c-3.4574585 -0.5840759 -4.2247925 -41.53592 -12.676445 -60.114655c-8.451653 -18.57875 -29.700172 -43.28395 -38.033455 -51.357788c-8.333267 -8.073837 -15.599869 -6.1208954 -11.966217 2.9147797z" fill-rule="evenodd"/><path fill="#d2506e" d="m-75.910286 158.65813c-0.19200897 6.8088226 8.934067 13.132538 13.832596 17.509583c4.898529 4.3770447 10.756393 11.5733795 15.5585785 8.752686c4.8021812 -2.8206787 10.661423 -16.047302 13.254517 -25.676788c2.5930977 -9.629501 6.914236 -28.11206 2.304058 -32.100197c-4.610176 -3.9881287 -22.4735 2.9189682 -29.965126 8.17141c-7.4916267 5.2524567 -14.792622 16.5345 -14.984623 23.343307z" fill-rule="evenodd"/><path fill="#f6b26b" d="m-203.78276 93.26346c7.5411224 -1.4238815 20.639984 -6.9391937 33.341217 -9.608925c12.701218 -2.6697311 29.965881 -4.0958023 42.866135 -6.4094467c12.900269 -2.313652 28.184608 -3.734909 34.53544 -7.4724426c6.35083 -3.7375336 7.538933 -11.393261 3.5695496 -14.952755c-3.9693756 -3.559494 -19.646545 -2.133419 -27.385826 -6.4041977c-7.7392807 -4.2707787 -12.104111 -14.237099 -19.049866 -19.220474c-6.945755 -4.9833775 -15.35083 -10.960192 -22.62468 -10.6797905c-7.273834 0.28040314 -16.139542 5.486002 -21.018372 12.3622055c-4.87883 6.8762016 -3.0249329 21.700787 -8.254593 28.895012c-5.22966 7.194229 -18.475937 8.866142 -23.123352 14.27034c-4.647415 5.4042053 -5.951889 14.951447 -4.761154 18.154861c1.1907196 3.2034073 4.364395 2.4894943 11.905502 1.0656128z" fill-rule="evenodd"/><path fill="#f6b26b" d="m-170.4637 81.86163c-0.9632416 4.9531937 -1.9273834 15.411636 -0.82676697 22.291336c1.1006165 6.8796997 2.3394623 15.822395 7.4304504 18.986877c5.090988 3.164482 18.024933 3.5774307 23.115479 0c5.090561 -3.5774307 7.978134 -13.071739 7.427826 -21.46457c-0.5503082 -8.392822 -5.3639526 -24.352142 -10.72966 -28.892387c-5.3657074 -4.540245 -17.061676 0.1377945 -21.46457 1.650917c-4.402878 1.5131226 -3.989502 2.4746323 -4.952759 7.427826z" fill-rule="evenodd"/><path fill="#06a77a" d="m-197.8622 112.79265l90.80315 0l0 24.944885l-90.80315 0z" fill-rule="evenodd"/><path fill="#05976e" d="m-151.0958 286.2467l90.80315 0l0 24.944885l-90.80315 0z" fill-rule="evenodd"/></g></svg>