<svg version="1.1" viewBox="0.0 0.0 499.7244094488189 499.4488188976378" fill="none" stroke="none" stroke-linecap="square" stroke-miterlimit="10" xmlns:xlink="http://www.w3.org/1999/xlink" xmlns="http://www.w3.org/2000/svg"><clipPath id="p.0"><path d="m0 0l499.7244 0l0 499.44882l-499.7244 0l0 -499.44882z" clip-rule="nonzero"/></clipPath><g clip-path="url(#p.0)"><path fill="#000000" fill-opacity="0.0" d="m0 0l499.7244 0l0 499.44882l-499.7244 0z" fill-rule="evenodd"/><path fill="#05976e" d="m0 0l499.71652 0l0 499.46457l-499.71652 0z" fill-rule="evenodd"/><path stroke="#38761d" stroke-width="1.0" stroke-linejoin="round" stroke-linecap="butt" d="m0 0l499.71652 0l0 499.46457l-499.71652 0z" fill-rule="evenodd"/><path fill="#fb9696" d="m96.67435 437.3921c-4.0988617 -5.8328857 3.3101501 -24.119415 2.8372726 -34.997375c-0.4728775 -10.87796 -8.354767 -24.121613 -5.6745377 -30.270355c2.6802216 -6.148712 16.238403 -10.563416 21.755905 -6.62204c5.517494 3.9413757 9.930443 18.288727 11.349075 30.270355c1.4186401 11.981628 2.2073517 34.68283 -2.837265 41.619415c-5.0446243 6.936554 -23.331589 5.8328857 -27.43045 0z" fill-rule="evenodd"/><path fill="#fb9696" d="m66.40513 391.04178c5.675415 -3.1531067 8.04068 -5.8333435 14.18898 -9.45932c6.1482925 -3.6259766 14.975937 -9.300964 22.700783 -12.2966c7.724846 -2.9956055 17.026688 -4.5734863 23.648293 -5.6771545c6.62162 -1.1036682 10.563438 -0.62991333 16.081367 -0.94488525c5.517929 -0.3149414 15.607178 1.1045532 17.026245 -0.94488525c1.4190674 -2.049408 -1.7327118 -8.356079 -8.51181 -11.351685c-6.7790833 -2.995636 -21.126862 -6.464142 -32.162727 -6.6220703c-11.035873 -0.15789795 -24.593178 1.8906555 -34.052498 5.6745605c-9.459312 3.783905 -16.397194 10.249329 -22.703407 17.02887c-6.3062134 6.7795105 -12.454071 17.97287 -15.133862 23.648285c-2.6797867 5.675415 -4.0979843 10.246735 -0.94488144 10.404205c3.1531067 0.1574707 14.188103 -6.3062134 19.863518 -9.45932z" fill-rule="evenodd"/><path fill="#00ffff" d="m268.94107 178.26508c3.9837036 -5.668991 -3.2171326 -23.441666 -2.7575378 -34.01396c0.45959473 -10.572281 8.119995 -23.443787 5.5150757 -29.419739c-2.604889 -5.975952 -15.7821045 -10.266594 -21.144562 -6.4359665c-5.362442 3.8306274 -9.651398 17.774803 -11.030167 29.419746c-1.3787689 11.644943 -2.1453247 33.708267 2.7575378 40.44992c4.902878 6.7416534 22.67598 5.668991 26.659653 0z" fill-rule="evenodd"/><path fill="#00ffff" d="m286.32782 134.2205c-4.90329 -0.76612854 -9.499634 -7.047333 -16.547821 -10.111839c-7.0481873 -3.064499 -18.846176 -5.670265 -25.741302 -8.275177c-6.8951416 -2.6049118 -13.178055 -3.2171326 -15.629486 -7.3543015c-2.4514313 -4.1371613 -3.0632324 -8.734764 0.9208832 -17.468689c3.9841156 -8.733917 14.5563965 -26.354393 22.98378 -34.93483c8.427368 -8.5804405 20.2258 -13.636787 27.580536 -16.54781c7.354706 -2.9110222 12.104523 -2.6040611 16.54779 -0.91833115c4.4432983 1.6857338 8.733093 5.0571976 10.111847 11.032722c1.3787842 5.9755287 -0.6134949 14.707748 -1.8392029 24.820442c-1.225708 10.112686 -4.5959167 26.815254 -5.5150757 35.855713c-0.91918945 9.040451 2.1452942 14.403336 0 18.387024c-2.1453247 3.983673 -7.9686584 6.281204 -12.871948 5.5150757z" fill-rule="evenodd"/><path fill="#b4a7d6" d="m317.07294 293.74527c1.89151 6.9365845 3.9409485 12.6119995 12.2966 17.026245c8.355652 4.414276 21.598846 8.197723 37.83725 9.45932c16.238434 1.2615967 46.349976 4.101074 59.5932 -1.88974c13.243195 -5.990814 23.492126 -30.407288 19.86612 -34.055145c-3.6259766 -3.6478577 -24.279968 11.243683 -41.62204 12.167999c-17.342072 0.9243164 -47.926514 -2.0717468 -62.43045 -6.62204c-14.503937 -4.5503235 -20.336395 -21.332031 -24.59317 -20.67981c-4.256775 0.6522217 -2.8390198 17.656616 -0.94750977 24.59317z" fill-rule="evenodd"/><path fill="#b4a7d6" d="m343.56482 358.06735c-10.247162 -3.9413757 -3.9404907 -19.07611 -2.8372803 -26.485565c1.103241 -7.409424 3.6238098 -14.660522 9.456696 -17.9711c5.8329163 -3.310608 17.9729 -3.1535645 25.54068 -1.892395c7.56781 1.2611389 15.451904 5.360443 19.86615 9.45932c4.414276 4.0988464 5.516205 9.458435 6.6194153 15.13385c1.103241 5.675415 9.774292 15.292664 0 18.91864c-9.774261 3.6259766 -48.3985 6.778656 -58.64566 2.8372498z" fill-rule="evenodd"/><path fill="#05976e" d="m209.92783 170.27821l90.80313 0l0 24.944885l-90.80313 0z" fill-rule="evenodd"/><path fill="#05976e" d="m326.94882 347.52756l90.80316 0l0 24.944885l-90.80316 0z" fill-rule="evenodd"/><path fill="#05976e" d="m69.95145 435.41733l90.80315 0l0 24.944885l-90.80315 0z" fill-rule="evenodd"/></g></svg>