<svg version="1.1" viewBox="0.0 0.0 499.7244094488189 499.4488188976378" fill="none" stroke="none" stroke-linecap="square" stroke-miterlimit="10" xmlns:xlink="http://www.w3.org/1999/xlink" xmlns="http://www.w3.org/2000/svg"><clipPath id="p.0"><path d="m0 0l499.7244 0l0 499.44882l-499.7244 0l0 -499.44882z" clip-rule="nonzero"/></clipPath><g clip-path="url(#p.0)"><path fill="#000000" fill-opacity="0.0" d="m0 0l499.7244 0l0 499.44882l-499.7244 0z" fill-rule="evenodd"/><path fill="#06a77a" d="m0 0l499.71652 0l0 499.46457l-499.71652 0z" fill-rule="evenodd"/><path stroke="#05976e" stroke-width="1.0" stroke-linejoin="round" stroke-linecap="butt" d="m0 0l499.71652 0l0 499.46457l-499.71652 0z" fill-rule="evenodd"/><path fill="#f6b26b" d="m112.89441 178.34482c7.5411224 -1.4238739 20.639984 -6.9391937 33.3412 -9.608917c12.701233 -2.6697235 29.965881 -4.0957947 42.86615 -6.4094543c12.900269 -2.3136444 28.1846 -3.734909 34.53543 -7.4724426c6.35083 -3.7375336 7.5389404 -11.393265 3.5695496 -14.952744c-3.9693756 -3.559494 -19.646545 -2.1334229 -27.385818 -6.4042053c-7.7392883 -4.2707825 -12.104111 -14.237099 -19.049866 -19.220474c-6.9457703 -4.9833755 -15.35083 -10.96019 -22.62468 -10.679787c-7.273834 0.28040314 -16.139542 5.486 -21.018372 12.3622055c-4.87883 6.876198 -3.0249329 21.70079 -8.254593 28.895004c-5.22966 7.194229 -18.475937 8.86615 -23.12336 14.27034c-4.647415 5.4042053 -5.9518814 14.951447 -4.761154 18.154861c1.1907272 3.203415 4.364395 2.489502 11.90551 1.0656128z" fill-rule="evenodd"/><path fill="#f6b26b" d="m146.21347 166.943c-0.96325684 4.9532013 -1.9273834 15.411636 -0.82676697 22.291336c1.1006165 6.879715 2.3394623 15.822403 7.4304504 18.986877c5.090988 3.1644897 18.024933 3.5774384 23.115479 0c5.0905457 -3.577423 7.978134 -13.071732 7.427826 -21.46457c-0.5503082 -8.392822 -5.3639526 -24.352142 -10.72966 -28.89238c-5.3657074 -4.5402527 -17.061676 0.13778687 -21.46457 1.6509094c-4.402893 1.5131226 -3.989502 2.47464 -4.952759 7.427826z" fill-rule="evenodd"/><path fill="#06a77a" d="m118.81365 200.82414l90.80314 0l0 24.944885l-90.80314 0z" fill-rule="evenodd"/><path fill="#d2506e" d="m289.4564 252.53511c-6.196594 4.3876495 2.947998 56.19728 10.973511 62.171555c8.025513 5.974304 39.008545 -15.963898 37.179626 -26.325836c-1.8289185 -10.361938 -41.956512 -40.233353 -48.153137 -35.84572z" fill-rule="evenodd"/><path fill="#d2506e" d="m309.69177 297.1535c3.6336365 9.035675 24.893188 32.007507 33.768066 51.299255c8.874878 19.291748 13.204285 53.270996 19.481262 64.451294c6.2769775 11.180267 14.500824 5.6999207 18.180573 2.6304016c3.6797485 -3.069519 1.5167542 -8.332428 3.8978882 -21.047455c2.381134 -12.715027 3.4622803 -39.020508 10.388916 -55.242767c6.926605 -16.222229 27.03894 -32.83899 31.170837 -42.09073c4.1318665 -9.251709 -1.3784485 -16.533081 -6.3795166 -13.419678c-5.001068 3.1134338 -16.999664 21.205658 -23.626923 32.10019c-6.6272583 10.894531 -12.102478 18.287415 -16.136627 33.266937c-4.0341797 14.979523 -4.6108704 57.194305 -8.068329 56.61023c-3.457489 -0.5840454 -4.2247925 -41.53592 -12.676453 -60.114655c-8.45166 -18.578735 -29.700165 -43.283966 -38.033447 -51.357788c-8.333282 -8.073822 -15.599884 -6.12088 -11.966248 2.9147644z" fill-rule="evenodd"/><path fill="#d2506e" d="m404.38104 281.20145c-0.19198608 6.8088074 8.934082 13.132538 13.832611 17.509583c4.898529 4.3770447 10.756378 11.573364 15.558563 8.752686c4.802185 -2.8206787 10.661438 -16.047302 13.254517 -25.676819c2.5931091 -9.629486 6.9142456 -28.112045 2.3040771 -32.100174c-4.610199 -3.9881287 -22.47351 2.9189606 -29.965118 8.171402c-7.491638 5.252472 -14.792633 16.534515 -14.98465 23.343323z" fill-rule="evenodd"/><path fill="#06a77a" d="m331.08652 410.76315l82.677155 0l0 21.984253l-82.677155 0z" fill-rule="evenodd"/></g></svg>