<svg version="1.1" viewBox="0.0 0.0 499.7244094488189 499.4488188976378" fill="none" stroke="none" stroke-linecap="square" stroke-miterlimit="10" xmlns:xlink="http://www.w3.org/1999/xlink" xmlns="http://www.w3.org/2000/svg"><clipPath id="p.0"><path d="m0 0l499.7244 0l0 499.44882l-499.7244 0l0 -499.44882z" clip-rule="nonzero"/></clipPath><g clip-path="url(#p.0)"><path fill="#000000" fill-opacity="0.0" d="m0 0l499.7244 0l0 499.44882l-499.7244 0z" fill-rule="evenodd"/><path fill="#06a77a" d="m0 0l499.71652 0l0 499.46457l-499.71652 0z" fill-rule="evenodd"/><path stroke="#06a77a" stroke-width="1.0" stroke-linejoin="round" stroke-linecap="butt" d="m0 0l499.71652 0l0 499.46457l-499.71652 0z" fill-rule="evenodd"/><path fill="#fb9696" d="m-279.6064 284.49783c-4.6669617 -6.6413574 3.7689514 -27.462372 3.2305298 -39.848022c-0.53842163 -12.385635 -9.512756 -27.464859 -6.461029 -34.465805c3.0516968 -7.000946 18.489044 -12.027527 24.77127 -7.539871c6.2822113 4.4876556 11.306793 20.823532 12.922058 34.46582c1.6152496 13.642273 2.5132751 39.4899 -3.2305145 47.38788c-5.743805 7.8979797 -26.565353 6.641327 -31.232315 0z" fill-rule="evenodd"/><path fill="#fb9696" d="m-314.07016 231.72374c6.462036 -3.5901337 9.155121 -6.6418304 16.155579 -10.770386c7.000458 -4.12854 17.051605 -10.590073 25.847107 -14.000885c8.795502 -3.4108276 19.386581 -5.207382 26.92595 -6.46402c7.5393677 -1.2566528 12.027527 -0.7172394 18.310242 -1.0758514c6.28273 -0.35861206 17.77034 1.2576447 19.386093 -1.0758362c1.6157532 -2.3334808 -1.9728851 -9.514236 -9.691559 -12.925049c-7.7186584 -3.4108276 -24.055038 -7.3600616 -36.620483 -7.539871c-12.56543 -0.17980957 -28.00177 2.1526794 -38.772156 6.461029c-10.770386 4.3083496 -18.66986 11.669907 -25.850098 19.389084c-7.1802673 7.719162 -14.180206 20.463913 -17.231415 26.925934c-3.0512085 6.462036 -4.665985 11.666916 -1.0758667 11.846222c3.590149 0.17930603 16.154572 -7.180252 22.616608 -10.7703705z" fill-rule="evenodd"/><path fill="#00ffff" d="m427.29803 466.9593c3.983673 -5.668976 -3.2171326 -23.44165 -2.7575378 -34.013947c0.45959473 -10.572266 8.119995 -23.443787 5.5150757 -29.419739c-2.6049194 -5.975952 -15.7821045 -10.266602 -21.144562 -6.435974c-5.3624573 3.8306274 -9.651398 17.77481 -11.030182 29.419739c-1.3787537 11.6449585 -2.1453247 33.708282 2.7575378 40.44992c4.902893 6.7416687 22.675964 5.6690063 26.659668 0z" fill-rule="evenodd"/><path fill="#00ffff" d="m444.68478 422.91473c-4.90329 -0.7661133 -9.499634 -7.047333 -16.547821 -10.111847c-7.0481873 -3.0644836 -18.846191 -5.6702576 -25.741333 -8.275177c-6.895111 -2.6049194 -13.17804 -3.2171326 -15.629456 -7.354309c-2.4514465 -4.137146 -3.0632324 -8.734741 0.9208679 -17.468689c3.9841003 -8.733917 14.5563965 -26.35437 22.983795 -34.934814c8.427368 -8.580444 20.2258 -13.63678 27.580505 -16.547821c7.3547363 -2.9110107 12.104553 -2.604065 16.547821 -0.91833496c4.443268 1.68573 8.733063 5.0572205 10.111847 11.032745c1.3787537 5.975525 -0.6134949 14.707733 -1.8392029 24.820435c-1.2257385 10.112671 -4.5959167 26.815247 -5.515106 35.855713c-0.91915894 9.040436 2.1453247 14.40332 0 18.387024c-2.1453247 3.983673 -7.968628 6.281189 -12.871918 5.5150757z" fill-rule="evenodd"/><path fill="#06a77a" d="m368.2848 458.97244l90.80313 0l0 24.944885l-90.80313 0z" fill-rule="evenodd"/><path fill="#b4a7d6" d="m57.583565 192.02974c-9.264454 -3.5630035 -3.5626106 -17.244812 -2.565174 -23.942947c0.9974365 -6.6981354 3.2762756 -13.253128 8.549797 -16.245895c5.2735176 -2.9927673 16.249279 -2.8507996 23.091328 -1.7107239c6.8420563 1.140091 13.970047 4.8458557 17.960983 8.551224c3.9909286 3.705368 4.9871826 8.55043 5.984619 13.681015c0.9974365 5.1305695 8.836922 13.824554 0 17.102432c-8.836929 3.277893 -43.757095 6.1279144 -53.021553 2.5648956z" fill-rule="evenodd"/><path fill="#06a77a" d="m42.561035 182.50485l82.11024 0l0 22.551178l-82.11024 0z" fill-rule="evenodd"/><path fill="#b4a7d6" d="m33.63225 133.87907c1.7101173 6.2706604 3.5630074 11.40123 11.117344 15.391724c7.5543365 3.9904938 19.527534 7.4107513 34.20868 8.551224c14.681145 1.1404877 41.90499 3.7073517 53.87818 -1.7083435c11.973206 -5.415695 21.239243 -27.48816 17.960983 -30.785828c-3.278244 -3.2976608 -21.951508 10.164261 -37.630493 10.999847c-15.67897 0.83558655 -43.330353 -1.8728485 -56.443363 -5.986328c-13.11301 -4.113472 -18.386135 -19.284142 -22.234692 -18.694527c-3.8485546 0.58961487 -2.5667572 15.961571 -0.85663986 22.232231z" fill-rule="evenodd"/><path fill="#d2506e" d="m-190.83495 129.9918c-6.196594 4.3876495 2.947998 56.19728 10.973511 62.17157c8.025528 5.974289 39.00853 -15.963928 37.17961 -26.325851c-1.8289185 -10.361923 -41.956512 -40.23336 -48.153122 -35.84572z" fill-rule="evenodd"/><path fill="#d2506e" d="m-170.59955 174.61021c3.6336365 9.03566 24.893158 32.007477 33.76805 51.29924c8.874886 19.291748 13.204285 53.270996 19.481255 64.451294c6.27697 11.180267 14.500832 5.69989 18.180573 2.6304016c3.6797485 -3.069519 1.5167694 -8.332428 3.8979034 -21.047455c2.381134 -12.715027 3.4622803 -39.020523 10.388901 -55.242767c6.9266205 -16.222244 27.038944 -32.83899 31.170834 -42.090714c4.1318855 -9.2517395 -1.3784447 -16.533112 -6.379513 -13.419693c-5.001068 3.1134186 -16.999641 21.205673 -23.626907 32.10019c-6.6272583 10.894516 -12.102486 18.2874 -16.13665 33.266937c-4.0341644 14.979523 -4.6108704 57.194305 -8.068329 56.61023c-3.4574585 -0.5840759 -4.2247925 -41.53592 -12.676445 -60.114655c-8.451653 -18.57875 -29.700172 -43.28395 -38.033455 -51.357788c-8.333267 -8.073837 -15.599869 -6.1208954 -11.966217 2.9147797z" fill-rule="evenodd"/><path fill="#d2506e" d="m-75.910286 158.65813c-0.19200897 6.8088226 8.934067 13.132538 13.832596 17.509583c4.898529 4.3770447 10.756393 11.5733795 15.5585785 8.752686c4.8021812 -2.8206787 10.661423 -16.047302 13.254517 -25.676788c2.5930977 -9.629501 6.914236 -28.11206 2.304058 -32.100197c-4.610176 -3.9881287 -22.4735 2.9189682 -29.965126 8.17141c-7.4916267 5.2524567 -14.792622 16.5345 -14.984623 23.343307z" fill-rule="evenodd"/><path fill="#f6b26b" d="m261.8183 104.767395c7.541107 -1.4238815 20.639984 -6.9391937 33.341217 -9.608925c12.701202 -2.6697235 29.965881 -4.0958023 42.86612 -6.4094467c12.900269 -2.313652 28.1846 -3.734909 34.53543 -7.4724426c6.35083 -3.7375336 7.5389404 -11.393265 3.56958 -14.952751c-3.9693909 -3.5594978 -19.646545 -2.1334229 -27.385834 -6.4042015c-7.7392883 -4.2707787 -12.104126 -14.237099 -19.049866 -19.220474c-6.9457703 -4.9833755 -15.35083 -10.960192 -22.624695 -10.6797905c-7.273834 0.28040314 -16.139526 5.486004 -21.018372 12.3622055c-4.8788147 6.8762016 -3.0249329 21.70079 -8.254578 28.895012c-5.2296753 7.194229 -18.475952 8.866142 -23.123367 14.27034c-4.647415 5.4042053 -5.951874 14.951447 -4.761154 18.154861c1.1907349 3.2034073 4.364395 2.4894943 11.905518 1.0656128z" fill-rule="evenodd"/><path fill="#f6b26b" d="m295.13736 93.36557c-0.96325684 4.9531937 -1.9273987 15.411636 -0.8267822 22.291336c1.1006165 6.8796997 2.3394775 15.822403 7.4304504 18.986877c5.0910034 3.1644745 18.024933 3.577423 23.115479 0c5.090576 -3.577423 7.9781494 -13.071739 7.427826 -21.46457c-0.55029297 -8.392822 -5.3639526 -24.352142 -10.729645 -28.892387c-5.3657227 -4.540245 -17.061676 0.1377945 -21.46457 1.650917c-4.402893 1.5131226 -3.989502 2.4746323 -4.952759 7.427826z" fill-rule="evenodd"/><path fill="#05976e" d="m-315.3536 268.69562l103.40158 0l0 28.409454l-103.40158 0z" fill-rule="evenodd"/><path fill="#06a77a" d="m267.73883 124.296585l90.80316 0l0 24.944885l-90.80316 0z" fill-rule="evenodd"/><path fill="#05976e" d="m-151.0958 286.2467l90.80315 0l0 24.944885l-90.80315 0z" fill-rule="evenodd"/></g></svg>