<svg version="1.1" viewBox="0.0 0.0 499.7244094488189 499.4488188976378" fill="none" stroke="none" stroke-linecap="square" stroke-miterlimit="10" xmlns:xlink="http://www.w3.org/1999/xlink" xmlns="http://www.w3.org/2000/svg"><clipPath id="p.0"><path d="m0 0l499.7244 0l0 499.44882l-499.7244 0l0 -499.44882z" clip-rule="nonzero"/></clipPath><g clip-path="url(#p.0)"><path fill="#000000" fill-opacity="0.0" d="m0 0l499.7244 0l0 499.44882l-499.7244 0z" fill-rule="evenodd"/><path fill="#05976e" d="m0 0l499.71652 0l0 499.46457l-499.71652 0z" fill-rule="evenodd"/><path stroke="#38761d" stroke-width="1.0" stroke-linejoin="round" stroke-linecap="butt" d="m0 0l499.71652 0l0 499.46457l-499.71652 0z" fill-rule="evenodd"/><path fill="#fb9696" d="m-288.64587 408.73856c-4.0988464 -5.8329163 3.3101501 -24.119446 2.8372803 -34.997375c-0.47286987 -10.87796 -8.354767 -24.121613 -5.67453 -30.270355c2.6802063 -6.1487427 16.238403 -10.563416 21.75589 -6.62204c5.517517 3.9413757 9.93045 18.288696 11.349091 30.270325c1.4186401 11.981628 2.2073364 34.68286 -2.8372803 41.619446c-5.0446167 6.936554 -23.331573 5.8328857 -27.43045 0z" fill-rule="evenodd"/><path fill="#fb9696" d="m-318.91507 362.38824c5.675415 -3.1531067 8.04068 -5.8333435 14.188965 -9.45932c6.148285 -3.626007 14.975952 -9.300964 22.700775 -12.2966c7.7248535 -2.995636 17.026703 -4.5734863 23.648315 -5.6771545c6.6215973 -1.1036682 10.563416 -0.62994385 16.08136 -0.94488525c5.517929 -0.31497192 15.607178 1.1045532 17.026245 -0.94488525c1.4190674 -2.0494385 -1.732727 -8.356079 -8.51181 -11.351715c-6.7790985 -2.9956055 -21.126862 -6.4641113 -32.16272 -6.62204c-11.035889 -0.15792847 -24.5932 1.890625 -34.05252 5.67453c-9.45929 3.783905 -16.397186 10.249359 -22.7034 17.02887c-6.3062134 6.779541 -12.454071 17.9729 -15.13385 23.648315c-2.6798096 5.675415 -4.097992 10.246704 -0.94488525 10.404205c3.1531067 0.1574707 14.18811 -6.3062134 19.863525 -9.45932z" fill-rule="evenodd"/><path fill="#00ffff" d="m-116.379135 149.61153c3.9836884 -5.668991 -3.2171326 -23.441666 -2.7575455 -34.013947c0.45959473 -10.5722885 8.120003 -23.443794 5.515091 -29.419746c-2.6049118 -5.975952 -15.782112 -10.266602 -21.14457 -6.4359665c-5.3624573 3.8306274 -9.651398 17.774796 -11.030167 29.419739c-1.3787689 11.644943 -2.1453247 33.708267 2.7575378 40.44992c4.9028625 6.7416534 22.675972 5.668991 26.659653 0z" fill-rule="evenodd"/><path fill="#00ffff" d="m-98.99239 105.56696c-4.90329 -0.7661209 -9.499619 -7.047333 -16.547806 -10.111839c-7.0481873 -3.064499 -18.846184 -5.670265 -25.741325 -8.275177c-6.8951263 -2.6049118 -13.17804 -3.2171326 -15.629471 -7.3543015c-2.4514313 -4.1371613 -3.0632324 -8.734772 0.9208832 -17.468689c3.9841003 -8.733921 14.556381 -26.354393 22.983765 -34.93483c8.427391 -8.5804405 20.225815 -13.6367855 27.580536 -16.54781c7.3547287 -2.9110236 12.104538 -2.604063 16.547813 -0.91833115c4.4432755 1.6857319 8.73307 5.0571966 10.111839 11.032723c1.3787766 5.975527 -0.6134949 14.707745 -1.8392105 24.820438c-1.2257156 10.11269 -4.595909 26.815258 -5.5150833 35.85571c-0.9191818 9.040459 2.145317 14.403343 0 18.387024c-2.1453247 3.9836884 -7.968651 6.281212 -12.871941 5.5150833z" fill-rule="evenodd"/><path fill="#05976e" d="m-175.3924 141.62466l90.803154 0l0 24.944885l-90.803154 0z" fill-rule="evenodd"/><path fill="#b4a7d6" d="m-312.39713 230.55818c-10.247162 -3.941391 -3.9404907 -19.07611 -2.8372498 -26.485565c1.1032104 -7.4094543 3.6237793 -14.660538 9.456665 -17.97113c5.8329163 -3.3105774 17.9729 -3.1535492 25.54071 -1.8923798c7.5677795 1.2611542 15.451874 5.360443 19.86612 9.459305c4.414276 4.0988617 5.5161896 9.45845 6.6194305 15.133865c1.103241 5.675415 9.774277 15.292648 0 18.91864c-9.774277 3.6259766 -48.398514 6.7786407 -58.645676 2.837265z" fill-rule="evenodd"/><path fill="#05976e" d="m-329.01312 220.01837l90.80315 0l0 24.944885l-90.80315 0z" fill-rule="evenodd"/><path fill="#b4a7d6" d="m-338.889 166.2361c1.89151 6.936569 3.9409485 12.611984 12.2966 17.026245c8.355652 4.414261 21.598846 8.197723 37.83728 9.45932c16.238403 1.2615814 46.349945 4.1010437 59.593155 -1.8897705c13.243225 -5.990814 23.492126 -30.407257 19.86615 -34.055115c-3.6259918 -3.6478577 -24.279968 11.243652 -41.622055 12.167969c-17.342072 0.92433167 -47.926514 -2.0717316 -62.43045 -6.62204c-14.503937 -4.550308 -20.336395 -21.332016 -24.59317 -20.679794c-4.256775 0.65223694 -2.8390198 17.656616 -0.94750977 24.593185z" fill-rule="evenodd"/><path fill="#05976e" d="m69.95145 435.41733l90.80315 0l0 24.944885l-90.80315 0z" fill-rule="evenodd"/><path fill="#d2506e" d="m85.272675 88.70834c-6.196602 4.387642 2.9479828 56.19728 10.973503 62.17157c8.02552 5.9742737 39.008537 -15.963928 37.17962 -26.325851c-1.8289185 -10.361931 -41.95652 -40.23336 -48.153122 -35.84572z" fill-rule="evenodd"/><path fill="#d2506e" d="m105.50806 133.32675c3.6336365 9.03566 24.893173 32.007477 33.76805 51.29924c8.874893 19.291748 13.204285 53.270996 19.481262 64.45128c6.2769623 11.180298 14.500824 5.6999207 18.180573 2.6304169c3.6797485 -3.069519 1.5167694 -8.332428 3.8979034 -21.047455c2.381134 -12.715042 3.4622803 -39.020523 10.388901 -55.242767c6.9266205 -16.222244 27.03894 -32.83899 31.170837 -42.090714c4.1318817 -9.2517395 -1.3784485 -16.533112 -6.3795166 -13.419693c-5.001068 3.1134186 -16.99965 21.205673 -23.626907 32.10019c-6.6272583 10.894516 -12.102493 18.2874 -16.136658 33.266937c-4.0341644 14.979523 -4.610855 57.194305 -8.068329 56.61023c-3.4574585 -0.58406067 -4.2247925 -41.53592 -12.676437 -60.114655c-8.451645 -18.57875 -29.700172 -43.28395 -38.033447 -51.357788c-8.333282 -8.073837 -15.599869 -6.1208954 -11.966232 2.9147797z" fill-rule="evenodd"/><path fill="#d2506e" d="m200.19733 117.37467c-0.19200134 6.808815 8.934067 13.13253 13.832596 17.509575c4.898529 4.3770447 10.756393 11.5733795 15.5585785 8.752686c4.802185 -2.8206787 10.661423 -16.047302 13.254517 -25.676796c2.5930939 -9.629501 6.9142303 -28.11206 2.304062 -32.10019c-4.6101837 -3.9881287 -22.47351 2.9189606 -29.965134 8.171417c-7.491623 5.252449 -14.792618 16.534492 -14.984619 23.343307z" fill-rule="evenodd"/><path fill="#f6b26b" d="m-145.41792 381.16635c7.5411224 -1.4238892 20.639977 -6.939209 33.3412 -9.608917c12.701225 -2.6697388 29.965881 -4.095825 42.866142 -6.4094543c12.900265 -2.3136597 28.184605 -3.7349243 34.535435 -7.4724426c6.350832 -3.7375488 7.538933 -11.39328 3.5695553 -14.952759c-3.9693775 -3.5595093 -19.646544 -2.1334229 -27.385828 -6.4042053c-7.7392807 -4.2707825 -12.104111 -14.237091 -19.049866 -19.220459c-6.9457626 -4.9833984 -15.35083 -10.960205 -22.624672 -10.67981c-7.273842 0.28042603 -16.13955 5.486023 -21.018372 12.362213c-4.87883 6.87619 -3.0249405 21.700775 -8.254593 28.89502c-5.22966 7.194214 -18.475937 8.86615 -23.123367 14.270325c-4.647415 5.4042053 -5.951874 14.951447 -4.761154 18.154877c1.1907349 3.2033997 4.364395 2.489502 11.905518 1.0656128z" fill-rule="evenodd"/><path fill="#f6b26b" d="m-112.09886 369.76453c-0.96325684 4.953186 -1.9273834 15.411621 -0.8267746 22.29132c1.1006165 6.8796997 2.3394623 15.822418 7.4304504 18.986877c5.090988 3.1644897 18.024933 3.577423 23.115486 0c5.0905457 -3.577423 7.9781265 -13.071747 7.4278183 -21.46457c-0.5503082 -8.392822 -5.3639526 -24.352142 -10.72966 -28.892365c-5.3657 -4.5402527 -17.061676 0.13778687 -21.46457 1.6509094c-4.4028854 1.5131226 -3.9894943 2.4746094 -4.952751 7.427826z" fill-rule="evenodd"/><path fill="#06a77a" d="m-320.042 394.8609l90.80315 0l0 24.944885l-90.80315 0z" fill-rule="evenodd"/><path fill="#06a77a" d="m-139.49738 400.69553l90.80315 0l0 24.944885l-90.80315 0z" fill-rule="evenodd"/><path fill="#05976e" d="m125.01181 244.96326l90.80315 0l0 24.944885l-90.80315 0z" fill-rule="evenodd"/></g></svg>