<svg version="1.1" viewBox="0.0 0.0 499.7244094488189 499.4488188976378" fill="none" stroke="none" stroke-linecap="square" stroke-miterlimit="10" xmlns:xlink="http://www.w3.org/1999/xlink" xmlns="http://www.w3.org/2000/svg"><clipPath id="p.0"><path d="m0 0l499.7244 0l0 499.44882l-499.7244 0l0 -499.44882z" clip-rule="nonzero"/></clipPath><g clip-path="url(#p.0)"><path fill="#000000" fill-opacity="0.0" d="m0 0l499.7244 0l0 499.44882l-499.7244 0z" fill-rule="evenodd"/><path fill="#05976e" d="m0 0l499.71652 0l0 499.46457l-499.71652 0z" fill-rule="evenodd"/><path stroke="#38761d" stroke-width="1.0" stroke-linejoin="round" stroke-linecap="butt" d="m0 0l499.71652 0l0 499.46457l-499.71652 0z" fill-rule="evenodd"/><path fill="#fb9696" d="m358.00775 188.70255c-4.6669617 -6.641327 3.7689514 -27.462372 3.2305298 -39.848007c-0.53842163 -12.385635 -9.512756 -27.464867 -6.461029 -34.465813c3.0516968 -7.000946 18.489044 -12.027519 24.77127 -7.5398636c6.2822266 4.4876556 11.306793 20.823532 12.922058 34.465805c1.6152649 13.642288 2.5132751 39.4899 -3.2305298 47.38788c-5.7437744 7.8979797 -26.565338 6.641342 -31.2323 0z" fill-rule="evenodd"/><path fill="#fb9696" d="m323.544 135.92847c6.462036 -3.5901337 9.155121 -6.6418457 16.155579 -10.770386c7.000458 -4.12854 17.051605 -10.590073 25.847107 -14.000893c8.795532 -3.41082 19.386597 -5.2073746 26.925964 -6.46402c7.5393677 -1.2566452 12.027527 -0.71723175 18.310242 -1.0758438c6.282715 -0.35861206 17.770325 1.257637 19.386078 -1.0758438c1.6157532 -2.3334808 -1.9728699 -9.514229 -9.691559 -12.925049c-7.7186584 -3.41082 -24.055023 -7.3600616 -36.620483 -7.5398636c-12.56543 -0.17980957 -28.00177 2.1526794 -38.772156 6.461029c-10.770386 4.3083496 -18.66986 11.669907 -25.850098 19.389076c-7.1802673 7.7191696 -14.180206 20.46392 -17.231415 26.925941c-3.0512085 6.462036 -4.665985 11.666916 -1.0758362 11.846222c3.5901184 0.17930603 16.154572 -7.180252 22.616577 -10.7703705z" fill-rule="evenodd"/><path fill="#00ffff" d="m-116.379135 149.61153c3.9836884 -5.668991 -3.2171326 -23.441666 -2.7575455 -34.013947c0.45959473 -10.5722885 8.120003 -23.443794 5.515091 -29.419746c-2.6049118 -5.975952 -15.782112 -10.266602 -21.14457 -6.4359665c-5.3624573 3.8306274 -9.651398 17.774796 -11.030167 29.419739c-1.3787689 11.644943 -2.1453247 33.708267 2.7575378 40.44992c4.9028625 6.7416534 22.675972 5.668991 26.659653 0z" fill-rule="evenodd"/><path fill="#00ffff" d="m-98.99239 105.56696c-4.90329 -0.7661209 -9.499619 -7.047333 -16.547806 -10.111839c-7.0481873 -3.064499 -18.846184 -5.670265 -25.741325 -8.275177c-6.8951263 -2.6049118 -13.17804 -3.2171326 -15.629471 -7.3543015c-2.4514313 -4.1371613 -3.0632324 -8.734772 0.9208832 -17.468689c3.9841003 -8.733921 14.556381 -26.354393 22.983765 -34.93483c8.427391 -8.5804405 20.225815 -13.6367855 27.580536 -16.54781c7.3547287 -2.9110236 12.104538 -2.604063 16.547813 -0.91833115c4.4432755 1.6857319 8.73307 5.0571966 10.111839 11.032723c1.3787766 5.975527 -0.6134949 14.707745 -1.8392105 24.820438c-1.2257156 10.11269 -4.595909 26.815258 -5.5150833 35.85571c-0.9191818 9.040459 2.145317 14.403343 0 18.387024c-2.1453247 3.9836884 -7.968651 6.281212 -12.871941 5.5150833z" fill-rule="evenodd"/><path fill="#05976e" d="m-175.3924 141.62466l90.803154 0l0 24.944885l-90.803154 0z" fill-rule="evenodd"/><path fill="#b4a7d6" d="m101.518 421.7305c-11.418411 -4.391876 -4.3909073 -21.25653 -3.1615677 -29.512878c1.229332 -8.256348 4.0379944 -16.336243 10.53759 -20.025208c6.4995956 -3.6889954 20.027184 -3.5140076 28.459984 -2.1087036c8.4328 1.405304 17.218033 5.9731445 22.13684 10.540527c4.918808 4.5673523 6.1466827 10.539551 7.3760223 16.863647c1.2293396 6.324127 10.8914795 17.040619 0 21.081055c-10.8914795 4.0404053 -53.930466 7.5534363 -65.34887 3.16156z" fill-rule="evenodd"/><path fill="#05976e" d="m83.002266 409.9876l101.196846 0l0 27.811005l-101.196846 0z" fill-rule="evenodd"/><path fill="#b4a7d6" d="m71.99702 350.05457c2.1077118 7.729431 4.3913956 14.053528 13.702087 18.972351c9.310692 4.9188232 24.067612 9.134735 42.16207 10.540527c18.094452 1.4057922 51.64775 4.5697937 66.40468 -2.105774c14.756912 -6.6755676 26.177277 -33.882812 22.13684 -37.94763c-4.040436 -4.064789 -27.055176 12.528809 -46.379456 13.558807c-19.32428 1.0299683 -53.404503 -2.3085632 -69.566246 -7.3789673c-16.161736 -5.070404 -22.660843 -23.770264 -27.404175 -23.043488c-4.7433243 0.7267761 -3.1635208 19.674744 -1.0558014 27.404175z" fill-rule="evenodd"/><path fill="#05976e" d="m69.95145 435.41733l90.80315 0l0 24.944885l-90.80315 0z" fill-rule="evenodd"/><path fill="#d2506e" d="m-190.83495 129.9918c-6.196594 4.3876495 2.947998 56.19728 10.973511 62.17157c8.025528 5.974289 39.00853 -15.963928 37.17961 -26.325851c-1.8289185 -10.361923 -41.956512 -40.23336 -48.153122 -35.84572z" fill-rule="evenodd"/><path fill="#d2506e" d="m-170.59955 174.61021c3.6336365 9.03566 24.893158 32.007477 33.76805 51.29924c8.874886 19.291748 13.204285 53.270996 19.481255 64.451294c6.27697 11.180267 14.500832 5.69989 18.180573 2.6304016c3.6797485 -3.069519 1.5167694 -8.332428 3.8979034 -21.047455c2.381134 -12.715027 3.4622803 -39.020523 10.388901 -55.242767c6.9266205 -16.222244 27.038944 -32.83899 31.170834 -42.090714c4.1318855 -9.2517395 -1.3784447 -16.533112 -6.379513 -13.419693c-5.001068 3.1134186 -16.999641 21.205673 -23.626907 32.10019c-6.6272583 10.894516 -12.102486 18.2874 -16.13665 33.266937c-4.0341644 14.979523 -4.6108704 57.194305 -8.068329 56.61023c-3.4574585 -0.5840759 -4.2247925 -41.53592 -12.676445 -60.114655c-8.451653 -18.57875 -29.700172 -43.28395 -38.033455 -51.357788c-8.333267 -8.073837 -15.599869 -6.1208954 -11.966217 2.9147797z" fill-rule="evenodd"/><path fill="#d2506e" d="m-75.910286 158.65813c-0.19200897 6.8088226 8.934067 13.132538 13.832596 17.509583c4.898529 4.3770447 10.756393 11.5733795 15.5585785 8.752686c4.8021812 -2.8206787 10.661423 -16.047302 13.254517 -25.676788c2.5930977 -9.629501 6.914236 -28.11206 2.304058 -32.100197c-4.610176 -3.9881287 -22.4735 2.9189682 -29.965126 8.17141c-7.4916267 5.2524567 -14.792622 16.5345 -14.984623 23.343307z" fill-rule="evenodd"/><path fill="#f6b26b" d="m-145.41792 381.16635c7.5411224 -1.4238892 20.639977 -6.939209 33.3412 -9.608917c12.701225 -2.6697388 29.965881 -4.095825 42.866142 -6.4094543c12.900265 -2.3136597 28.184605 -3.7349243 34.535435 -7.4724426c6.350832 -3.7375488 7.538933 -11.39328 3.5695553 -14.952759c-3.9693775 -3.5595093 -19.646544 -2.1334229 -27.385828 -6.4042053c-7.7392807 -4.2707825 -12.104111 -14.237091 -19.049866 -19.220459c-6.9457626 -4.9833984 -15.35083 -10.960205 -22.624672 -10.67981c-7.273842 0.28042603 -16.13955 5.486023 -21.018372 12.362213c-4.87883 6.87619 -3.0249405 21.700775 -8.254593 28.89502c-5.22966 7.194214 -18.475937 8.86615 -23.123367 14.270325c-4.647415 5.4042053 -5.951874 14.951447 -4.761154 18.154877c1.1907349 3.2033997 4.364395 2.489502 11.905518 1.0656128z" fill-rule="evenodd"/><path fill="#f6b26b" d="m-112.09886 369.76453c-0.96325684 4.953186 -1.9273834 15.411621 -0.8267746 22.29132c1.1006165 6.8796997 2.3394623 15.822418 7.4304504 18.986877c5.090988 3.1644897 18.024933 3.577423 23.115486 0c5.0905457 -3.577423 7.9781265 -13.071747 7.4278183 -21.46457c-0.5503082 -8.392822 -5.3639526 -24.352142 -10.72966 -28.892365c-5.3657 -4.5402527 -17.061676 0.13778687 -21.46457 1.6509094c-4.4028854 1.5131226 -3.9894943 2.4746094 -4.952751 7.427826z" fill-rule="evenodd"/><path fill="#05976e" d="m322.2606 172.90033l103.40155 0l0 28.409454l-103.40155 0z" fill-rule="evenodd"/><path fill="#06a77a" d="m-139.49738 400.69553l90.80315 0l0 24.944885l-90.80315 0z" fill-rule="evenodd"/><path fill="#05976e" d="m-151.0958 286.2467l90.80315 0l0 24.944885l-90.80315 0z" fill-rule="evenodd"/></g></svg>