<svg version="1.1" viewBox="0.0 0.0 499.7244094488189 499.4488188976378" fill="none" stroke="none" stroke-linecap="square" stroke-miterlimit="10" xmlns:xlink="http://www.w3.org/1999/xlink" xmlns="http://www.w3.org/2000/svg"><clipPath id="p.0"><path d="m0 0l499.7244 0l0 499.44882l-499.7244 0l0 -499.44882z" clip-rule="nonzero"/></clipPath><g clip-path="url(#p.0)"><path fill="#000000" fill-opacity="0.0" d="m0 0l499.7244 0l0 499.44882l-499.7244 0z" fill-rule="evenodd"/><path fill="#b7b7b7" d="m0 0l499.71652 0l0 98.362206l-499.71652 0z" fill-rule="evenodd"/><path fill="#b7b7b7" d="m0 401.0866l499.71652 0l0 98.36221l-499.71652 0z" fill-rule="evenodd"/><path fill="#b7b7b7" d="m499.71915 94.41732l-0.03149414 319.87402l-98.36218 0l0.03149414 -319.87402z" fill-rule="evenodd"/><path fill="#b7b7b7" d="m98.3937 94.41732l-0.03149414 319.87402l-98.362206 0l0.031496063 -319.87402z" fill-rule="evenodd"/><path fill="#e0249e" d="m404.34647 93.220474l-0.03149414 313.00787l-308.9449 0l0.03149414 -313.00787z" fill-rule="evenodd"/><path fill="#999999" d="m0 0l94.20473 0l-94.20473 94.20473z" fill-rule="evenodd"/><path fill="#999999" d="m498.55072 2.6062992E-4l0 94.20473l-94.20474 -94.20473z" fill-rule="evenodd"/><path fill="#999999" d="m499.26498 499.33282l-94.20471 0l94.20471 -94.20474z" fill-rule="evenodd"/><path fill="#999999" d="m1.0305651 499.49722l0 -94.20474l94.20473 94.20474z" fill-rule="evenodd"/></g></svg>