<svg version="1.1" viewBox="0.0 0.0 499.7244094488189 499.4488188976378" fill="none" stroke="none" stroke-linecap="square" stroke-miterlimit="10" xmlns:xlink="http://www.w3.org/1999/xlink" xmlns="http://www.w3.org/2000/svg"><clipPath id="p.0"><path d="m0 0l499.7244 0l0 499.44882l-499.7244 0l0 -499.44882z" clip-rule="nonzero"/></clipPath><g clip-path="url(#p.0)"><path fill="#000000" fill-opacity="0.0" d="m0 0l499.7244 0l0 499.44882l-499.7244 0z" fill-rule="evenodd"/><path fill="#ff4d00" d="m0 0l499.71652 0l0 499.46457l-499.71652 0z" fill-rule="evenodd"/><path stroke="#ff4d00" stroke-width="1.0" stroke-linejoin="round" stroke-linecap="butt" d="m0 0l499.71652 0l0 499.46457l-499.71652 0z" fill-rule="evenodd"/><path fill="#ff8800" d="m295.46802 70.1856c6.6328125 16.099297 28.853088 36.41809 37.80719 53.454613c8.954132 17.036514 4.144409 40.167984 15.917511 48.76451c11.773102 8.596527 37.972748 10.786041 54.72113 2.8146515c16.748383 -7.9713745 38.80417 -32.511658 45.769135 -50.64293c6.964966 -18.131279 4.1459656 -40.95166 -3.97937 -58.144714c-8.125336 -17.193062 -19.401825 -38.44908 -44.772705 -45.01363c-25.37088 -6.5645504 -89.87543 -2.501587 -107.45261 5.6263294c-17.577148 8.127916 -4.6431274 27.041868 1.9897156 43.141167z" fill-rule="evenodd"/><path fill="#434343" d="m313.60593 75.46353c5.001007 13.16571 21.75473 29.782051 28.505981 43.714203c6.751251 13.932159 3.1247864 32.848648 12.001526 39.878723c8.876709 7.0300903 28.630798 8.820633 41.25879 2.3017883c12.627991 -6.51886 29.25766 -26.587448 34.509125 -41.41488c5.251465 -14.827423 3.126007 -33.48951 -3.0003662 -47.549683c-6.1263733 -14.060165 -14.628662 -31.442947 -33.757843 -36.811317c-19.129211 -5.368368 -67.76456 -2.0457497 -81.017426 4.6011124c-13.252869 6.646858 -3.500824 22.114342 1.5002136 35.280052z" fill-rule="evenodd"/><path fill="#ff8800" d="m178.40604 59.332855c-33.846893 2.4282608 -98.925644 -2.6150475 -111.4462 22.288712c-12.520565 24.903763 36.18547 92.04855 36.32283 127.133865c0.13735962 35.085297 -30.820648 62.189423 -35.498688 83.37796c-4.6780396 21.188538 -6.7414703 32.470673 7.4304504 43.753265c14.171913 11.282593 54.623352 23.25415 77.60104 23.94226c22.977692 0.68811035 45.818466 -7.155304 60.26509 -19.81366c14.44664 -12.658356 7.978134 -41.875305 26.414703 -56.136475c18.436554 -14.261139 70.03281 -6.3635254 84.20471 -29.43045c14.171936 -23.066925 9.769928 -77.7384 0.8267822 -108.971115c-8.943146 -31.232727 -30.13211 -64.06781 -54.485565 -78.4252c-24.353455 -14.357395 -57.78827 -10.147419 -91.63516 -7.719162z" fill-rule="evenodd"/><path fill="#434343" d="m182.53778 83.48871c-26.90828 2.0346375 -78.64588 -2.1911469 -88.59973 18.675713c-9.953842 20.866867 28.767456 77.127495 28.876656 106.52546c0.109199524 29.39798 -24.502419 52.10852 -28.221458 69.8624c-3.71904 17.753876 -5.3594666 27.207184 5.9072037 36.66086c11.266678 9.453705 43.425575 19.48468 61.692833 20.061218c18.267273 0.5765686 36.425674 -5.9954224 47.91075 -16.601837c11.485077 -10.606445 6.3426056 -35.08734 20.99968 -47.036774c14.657074 -11.949402 55.6761 -5.3320007 66.942764 -24.65976c11.266663 -19.32779 7.7670593 -65.137024 0.6572876 -91.306915c-7.1098022 -26.169891 -23.955048 -53.68241 -43.316025 -65.71247c-19.361008 -12.03006 -45.94168 -8.502525 -72.84996 -6.467888z" fill-rule="evenodd"/><path fill="#ff8800" d="m11.648403 317.18942c6.466755 8.117676 25.730972 -6.329834 36.32546 -21.46457c10.59449 -15.134735 24.76509 -45.81627 27.24147 -69.34383c2.4763794 -23.527557 -8.118111 -48.43132 -12.383202 -71.82152c-4.265091 -23.390213 -15.959316 -50.770782 -13.207348 -68.51969c2.7519684 -17.748909 33.15923 -25.453194 29.719158 -37.973755c-3.440071 -12.520557 -39.214787 -32.058617 -50.35958 -37.149605c-11.144794 -5.0909886 -15.408574 -20.226158 -16.509186 6.603674c-1.1006126 26.829836 10.455819 116.12554 9.905513 154.37534c-0.5503063 38.249786 -11.418636 50.9077 -13.20735 75.12335c-1.7887139 24.215652 -3.9916887 62.052933 2.4750652 70.17061z" fill-rule="evenodd"/><path fill="#434343" d="m20.729532 303.9822c4.3709526 5.314087 18.510061 -3.9536438 25.401575 -17.648285c6.891514 -13.694672 14.49781 -42.6295 15.947506 -64.5197c1.4496918 -21.890198 -3.7974625 -45.430878 -7.249344 -66.82152c-3.4518814 -21.39064 -15.073055 -45.00875 -13.461941 -61.522316c1.6111107 -16.513557 24.504375 -26.96457 23.128605 -37.559055c-1.3757629 -10.594486 -24.363953 -23.737095 -31.383198 -26.007872c-7.019249 -2.2707787 -10.4042015 -11.153107 -10.732285 12.3832c-0.32808495 23.536312 9.1762905 93.47418 8.763779 128.83464c-0.41251183 35.36046 -9.503061 61.1846 -11.238846 83.328094c-1.7357826 22.143463 -3.5468063 44.21872 0.8241482 49.532806z" fill-rule="evenodd"/><path fill="#ff8800" d="m350.11682 187.58037c5.778656 -4.815399 22.426514 11.970245 34.671906 12.383194c12.245422 0.4129486 22.702545 -10.042862 38.800537 -9.905502c16.097992 0.13735962 46.64261 0.41075134 57.787415 10.72966c11.144775 10.318893 7.705139 21.739273 9.08136 51.183716c1.3761902 29.444458 7.843811 104.293976 -0.8241577 125.48294c-8.667969 21.188995 -40.03894 9.4938965 -51.183716 1.65094c-11.144806 -7.842987 -13.483398 -34.67456 -15.685059 -48.70868c-2.2016602 -14.034119 9.07962 -26.415558 2.4750671 -35.496063c-6.604553 -9.080475 -29.581787 -7.979431 -42.102356 -18.986877c-12.520569 -11.007446 -27.517487 -32.33551 -33.020996 -47.05774c-5.5035095 -14.722229 -5.778656 -36.46019 0 -41.27559z" fill-rule="evenodd"/><path fill="#434343" d="m362.50223 202.43773c4.953186 -3.439621 21.189423 15.415573 33.020996 14.860901c11.8315735 -0.5546875 25.17279 -16.538055 37.968506 -18.18898c12.795715 -1.6509247 31.099731 -2.0402374 38.805786 8.283463c7.706024 10.323715 6.1920166 26.278656 7.43042 53.6588c1.2384338 27.380127 5.5765686 92.34601 0 110.62204c-5.576538 18.276031 -25.635162 6.5638733 -33.45932 -0.96588135c-7.824127 -7.5297546 -11.592712 -31.473755 -13.485565 -44.212585c-1.8928223 -12.738861 7.8070984 -23.97815 2.1286316 -32.22049c-5.6784973 -8.24234 -24.68155 -7.843811 -36.199493 -17.233582c-11.517914 -9.3897705 -26.873138 -26.671051 -32.90811 -39.104996c-6.0350037 -12.433945 -8.255035 -32.05905 -3.3018494 -35.498688z" fill-rule="evenodd"/><path fill="#ff8800" d="m258.484 296.551c17.335968 -18.574799 60.677612 -20.089233 75.950134 -16.51181c15.272522 3.5774536 15.134735 19.539368 15.685059 37.97638c0.55029297 18.437012 7.566925 60.40027 -12.383209 72.64569c-19.950134 12.245392 -94.10893 16.51181 -107.3176 0.8267517c-13.208649 -15.685028 10.72966 -76.36218 28.065613 -94.93701z" fill-rule="evenodd"/><path fill="#434343" d="m265.0797 308.02472c13.610443 -13.676636 47.63797 -14.791687 59.62845 -12.157654c11.990448 2.6340637 11.882263 14.386841 12.314301 27.962036c0.43206787 13.575165 5.940796 44.472687 -9.722046 53.488983c-15.662842 9.016296 -73.8849 12.157654 -84.25502 0.60876465c-10.370132 -11.548889 8.423843 -56.225494 22.034317 -69.90213z" fill-rule="evenodd"/><path fill="#ff8800" d="m370.7562 310.58612c7.7051697 -7.980316 30.546387 -13.072174 39.62732 0.8241577c9.080933 13.896332 4.814514 66.180664 14.858246 82.5538c10.043762 16.373138 38.662292 8.392822 45.404205 15.685028c6.741913 7.292206 10.044189 22.702118 -4.952759 28.068237c-14.996918 5.36615 -68.10541 17.199493 -85.02887 4.1286316c-16.923431 -13.070892 -14.860443 -60.677185 -16.51181 -82.5538c-1.6513367 -21.876648 -1.101471 -40.72574 6.603668 -48.706055z" fill-rule="evenodd"/><path fill="#434343" d="m378.18683 323.79233c3.8526 -7.704712 17.77124 -11.507416 23.94226 0.8267822c6.171051 12.334198 3.728363 58.043762 13.083984 73.17847c9.355652 15.134735 35.87491 12.077454 43.049866 17.629944c7.174988 5.55249 11.007019 12.933075 0 15.685028c-11.006989 2.7519836 -52.83377 10.870972 -66.04199 0.8267822c-13.208221 -10.044189 -10.868317 -43.067383 -13.207336 -61.091858c-2.3390198 -18.024506 -4.679352 -39.350403 -0.8267822 -47.055145z" fill-rule="evenodd"/><path fill="#ff8800" d="m76.04269 362.5942c29.03106 7.1548767 95.62292 13.346893 119.70078 21.46457c24.077866 8.117676 0.4129486 21.46283 24.766403 27.241486c24.353455 5.778656 97.41383 -1.5131226 121.354324 7.4304504c23.940521 8.9435425 1.1001892 38.11328 22.288727 46.230957c21.188538 8.117676 87.368774 -0.9645691 104.84253 2.4750671c17.473755 3.4396362 33.158783 15.410767 0 18.16272c-33.158813 2.7519836 -148.87051 -1.3757629 -198.95276 -1.6509094c-50.082245 -0.27514648 -60.95189 -0.27514648 -101.540695 0c-40.5888 0.27514648 -116.951004 15.960205 -141.99213 1.6509094c-25.041119 -14.309265 -7.4291344 -63.428253 -8.254593 -87.50656c-0.8254585 -24.078308 -6.3293962 -51.046783 3.301838 -56.963257c9.631233 -5.916443 25.454504 14.309723 54.485565 21.46457z" fill-rule="evenodd"/><path fill="#434343" d="m34.762604 369.19577c24.21566 -1.1006165 123.00394 20.639526 150.24672 30.545929c27.242783 9.906372 -11.831589 23.251068 13.209976 28.892365c25.04155 5.6412964 112.96152 -1.5113525 137.03937 4.9553833c24.07785 6.4667664 -5.7803955 26.140442 7.427826 33.845154c13.208221 7.704712 89.15747 11.282593 71.8215 12.383209c-17.335938 1.1006165 -131.12115 -3.9908142 -175.83725 -5.779541c-44.71611 -1.7886963 -59.43788 -5.2283325 -92.45932 -4.952759c-33.02144 0.27560425 -85.85608 9.2204895 -105.6693 6.6063232c-19.813213 -2.6141968 -13.07218 -10.733612 -13.209976 -22.291351c-0.1377945 -11.557739 11.144794 -33.020996 12.383202 -47.055115c1.2384071 -14.034119 -29.168415 -36.04901 -4.952755 -37.149597z" fill-rule="evenodd"/><path fill="#ff8800" d="m104.11049 25.774525c-10.181541 3.3022747 71.68416 20.502625 98.238846 20.640419c26.554688 0.1377945 77.46237 -16.373577 61.089233 -19.813648c-16.373138 -3.4400692 -149.14655 -4.1290455 -159.32808 -0.8267708z" fill-rule="evenodd"/><path fill="#434343" d="m137.12935 28.55185c-6.4438934 2.3089504 45.36891 14.335434 62.17537 14.431782c16.806458 0.09634781 49.02594 -11.448406 38.663376 -13.853703c-10.362549 -2.4052982 -94.39484 -2.8870296 -100.838745 -0.5780792z" fill-rule="evenodd"/></g></svg>